<svg width="16" height="16" viewBox="0 0 16 16" fill="none" xmlns="http://www.w3.org/2000/svg">
<path d="M0.499219 0.038672C0.3375 0.0878906 0.084375 0.348047 0.0386719 0.513281C0.0140625 0.604688 0 1.44844 0 3.02695L0 5.40703L0.0984375 5.59336C0.16875 5.73047 0.242578 5.81133 0.369141 5.88867L0.537891 5.99414H6.75H12.9621L13.1309 5.88867C13.2574 5.81133 13.3312 5.73047 13.4016 5.59336L13.5 5.40703V3.03398C13.5 1.25508 13.4895 0.622266 13.4578 0.513281C13.4016 0.326953 13.173 0.0984378 12.9867 0.0421877C12.8039 -0.0105467 0.685547 -0.0140624 0.499219 0.038672ZM11.9883 3.00586V4.5H6.75H1.51172V3.00586V1.51172H6.75H11.9883V3.00586Z" fill="#666666"/>
<path d="M12.6227 7.35271C12.1802 7.00965 11.5587 6.72625 11.0019 6.6119C10.7035 6.55224 10.1268 6.53235 9.80613 6.57461C8.97334 6.68648 8.24745 7.04942 7.64834 7.64853C6.89511 8.40177 6.52471 9.33399 6.55205 10.4054C6.59183 11.887 7.53648 13.2394 8.90373 13.7714C10.189 14.276 11.591 14.0523 12.6873 13.1698C13.3138 12.6676 13.7985 11.8497 13.97 11.002C14.0372 10.6814 14.0471 10.0748 13.9949 9.7193C13.9477 9.40359 13.7811 8.86912 13.6444 8.60312C13.4157 8.1656 12.9831 7.63361 12.6227 7.35271ZM11.8819 9.75411L11.3598 10.2911L11.8819 10.828L12.4039 11.36L11.8819 11.8821L11.3598 12.4041L10.8278 11.8821L10.2909 11.36L9.75392 11.8821L9.22193 12.4041L8.69989 11.8821L8.17785 11.36L8.70238 10.8255L9.22193 10.2911L8.70238 9.75659L8.17785 9.22212L8.69989 8.70008L9.22193 8.17803L9.75641 8.70256L10.2909 9.22212L10.8278 8.70008L11.3598 8.17803L11.8819 8.70008L12.4039 9.22212L11.8819 9.75411Z" fill="#BE4B4B"/>
</svg>
