<svg width="16" height="16" viewBox="0 0 16 16" fill="none" xmlns="http://www.w3.org/2000/svg">
<path d="M0.0406251 13.0008C0.0898438 13.1625 0.35 13.4156 0.515234 13.4613C0.606641 13.4859 1.45039 13.5 3.02891 13.5H5.40898L5.59531 13.4016C5.73242 13.3313 5.81328 13.2574 5.89062 13.1309L5.99609 12.9621V6.75L5.99609 0.537891L5.89063 0.369141C5.81328 0.242579 5.73242 0.168751 5.59531 0.0984383L5.40898 0H3.03594C1.25703 0 0.624219 0.0105476 0.515234 0.0421877C0.328907 0.0984383 0.100391 0.326954 0.0441408 0.513282C-0.00859356 0.696095 -0.0121093 12.8145 0.0406251 13.0008ZM3.00781 1.51172H4.50195L4.50195 6.75V11.9883H3.00781H1.51367V6.75L1.51367 1.51172H3.00781Z" fill="#666666"/>
<path d="M7.35271 7.96717C7.00965 8.40966 6.72625 9.03114 6.6119 9.58799C6.55224 9.8863 6.53235 10.463 6.57461 10.7837C6.68648 11.6165 7.04942 12.3424 7.64853 12.9415C8.40177 13.6947 9.33399 14.0651 10.4054 14.0378C11.887 13.998 13.2394 13.0534 13.7714 11.6861C14.276 10.4009 14.0523 8.99883 13.1698 7.90253C12.6676 7.27608 11.8497 6.79133 11.002 6.6198C10.6814 6.55268 10.0748 6.54274 9.7193 6.59494C9.40359 6.64217 8.86912 6.80873 8.60313 6.94546C8.1656 7.17416 7.63362 7.60671 7.35271 7.96717ZM9.75411 8.70797L10.2911 9.23002L10.828 8.70797L11.36 8.18593L11.8821 8.70797L12.4041 9.23002L11.8821 9.762L11.36 10.299L11.8821 10.8359L12.4041 11.3679L11.8821 11.89L11.36 12.412L10.8255 11.8875L10.2911 11.3679L9.75659 11.8875L9.22212 12.412L8.70008 11.89L8.17803 11.3679L8.70256 10.8334L9.22212 10.299L8.70008 9.76201L8.17803 9.23002L8.70008 8.70797L9.22212 8.18593L9.75411 8.70797Z" fill="#BE4B4B"/>
</svg>
