<svg width="37" height="36" viewBox="0 0 37 36" fill="none" xmlns="http://www.w3.org/2000/svg">
<rect width="37" height="36" fill="white"/>
<path d="M10.7917 24C10.7917 25.6569 9.41121 27 7.70833 27C6.00545 27 4.625 25.6569 4.625 24C4.625 22.3431 6.00545 21 7.70833 21C9.41121 21 10.7917 22.3431 10.7917 24ZM10.7917 12C10.7917 13.6569 9.41121 15 7.70833 15C6.00545 15 4.625 13.6569 4.625 12C4.625 10.3431 6.00545 9 7.70833 9C9.41121 9 10.7917 10.3431 10.7917 12ZM21.5833 24C21.5833 25.6569 20.2029 27 18.5 27C16.7971 27 15.4167 25.6569 15.4167 24C15.4167 22.3431 16.7971 21 18.5 21C20.2029 21 21.5833 22.3431 21.5833 24ZM21.5833 12C21.5833 13.6569 20.2029 15 18.5 15C16.7971 15 15.4167 13.6569 15.4167 12C15.4167 10.3431 16.7971 9 18.5 9C20.2029 9 21.5833 10.3431 21.5833 12ZM32.375 24C32.375 25.6569 30.9946 27 29.2917 27C27.5887 27 26.2083 25.6569 26.2083 24C26.2083 22.3431 27.5887 21 29.2917 21C30.9946 21 32.375 22.3431 32.375 24ZM32.375 12C32.375 13.6569 30.9946 15 29.2917 15C27.5887 15 26.2083 13.6569 26.2083 12C26.2083 10.3431 27.5887 9 29.2917 9C30.9946 9 32.375 10.3431 32.375 12Z" fill="#212121" fill-opacity="0.62"/>
</svg>
