<svg width="31" height="21" viewBox="0 0 31 21" fill="none" xmlns="http://www.w3.org/2000/svg">
<path d="M15.495 20.3999C15.2195 20.3999 14.9435 20.3926 14.6662 20.378C8.76928 20.0636 3.39764 16.3817 0.982077 10.9973C0.70664 10.383 0.980858 9.66215 1.59511 9.3861C2.20997 9.11127 2.93025 9.38488 3.2063 9.99974C5.25197 14.5591 9.80095 17.6779 14.796 17.9436C20.3084 18.2391 25.5314 15.0441 27.7952 9.99974C28.0706 9.38488 28.7921 9.11127 29.4064 9.3861C30.0206 9.66154 30.2948 10.383 30.0194 10.9973C27.4594 16.7016 21.6947 20.3999 15.495 20.3999Z" fill="#707881"/>
<path d="M2.09358 11.7185C1.92661 11.7185 1.7572 11.6838 1.59511 11.6113C0.980858 11.3358 0.70664 10.6143 0.982077 10.0001C3.65541 4.04282 9.82715 0.275662 16.3347 0.619349C22.2316 0.933787 27.6032 4.61563 30.0188 10.0001C30.2942 10.6143 30.02 11.3352 29.4058 11.6113C28.7921 11.8867 28.0706 11.6125 27.7946 10.9976C25.7489 6.43827 21.1999 3.31949 16.2049 3.0538C10.6949 2.75947 5.46951 5.95321 3.20569 10.9976C3.00337 11.4504 2.55914 11.7185 2.09358 11.7185Z" fill="#707881"/>
<path d="M15.4996 15.5215C12.73 15.5215 10.4766 13.2686 10.4766 10.499C10.4766 7.72942 12.73 5.47656 15.4996 5.47656C18.2692 5.47656 20.5227 7.72942 20.5227 10.499C20.5227 13.2686 18.2692 15.5215 15.4996 15.5215ZM15.4996 7.91406C14.0981 7.91406 12.9141 9.09747 12.9141 10.499C12.9141 11.9006 14.0981 13.084 15.4996 13.084C16.9012 13.084 18.0852 11.9006 18.0852 10.499C18.0852 9.09747 16.9012 7.91406 15.4996 7.91406Z" fill="#707881"/>
</svg>
