<svg width="14" height="15" viewBox="0 0 14 15" fill="none" xmlns="http://www.w3.org/2000/svg">
<path d="M13.0008 14.9574C13.1625 14.9082 13.4156 14.648 13.4613 14.4828C13.4859 14.3914 13.5 13.5477 13.5 11.9691V9.58906L13.4016 9.40273C13.3313 9.26562 13.2574 9.18477 13.1309 9.10742L12.9621 9.00195H6.75L0.537891 9.00195L0.369141 9.10742C0.242579 9.18477 0.168751 9.26562 0.0984383 9.40273L0 9.58906V11.9621C0 13.741 0.0105476 14.3738 0.0421877 14.4828C0.0984383 14.6691 0.326954 14.8977 0.513282 14.9539C0.696095 15.0066 12.8145 15.0102 13.0008 14.9574ZM1.51172 11.9902V10.4961L6.75 10.4961H11.9883V11.9902V13.4844H6.75L1.51172 13.4844V11.9902Z" fill="#666666"/>
<path d="M7.18008 7.47189C7.73555 7.40157 8.37539 7.16251 8.85 6.84962C9.10312 6.68087 9.525 6.28712 9.72187 6.03048C10.2316 5.36251 10.4883 4.59259 10.4883 3.74532C10.4883 2.68009 10.091 1.759 9.31406 1.02071C8.23828 0.00118371 6.61406 -0.287097 5.27109 0.303528C4.00547 0.855481 3.17227 2.00509 3.02109 3.40431C2.9332 4.20236 3.16875 5.12345 3.64687 5.84415C3.82617 6.11837 4.24805 6.55431 4.53633 6.76876C4.79297 6.95861 5.28867 7.21876 5.57344 7.31017C6.04453 7.45782 6.72656 7.52814 7.18008 7.47189ZM6.00586 5.25001L5.99531 4.50118L5.24648 4.49064L4.50117 4.48361V3.74532L4.50117 3.00704L5.24648 3.00001L5.99531 2.98946L6.00586 2.24064L6.01289 1.49532H6.75117H7.48945L7.49648 2.24415L7.50703 2.98946L8.25234 3.00001L9.00117 3.00704V3.74532V4.48361L8.25234 4.49064L7.50703 4.50118L7.49648 5.25001L7.48945 5.99532L6.75117 5.99532H6.01289L6.00586 5.25001Z" fill="#666666"/>
</svg>
