<svg width="15" height="14" viewBox="0 0 15 14" fill="none" xmlns="http://www.w3.org/2000/svg">
<path d="M14.9555 0.499219C14.9062 0.3375 14.6461 0.084375 14.4809 0.0386719C14.3895 0.0140625 13.5457 0 11.9672 0L9.58711 0L9.40078 0.0984375C9.26367 0.16875 9.18281 0.242578 9.10547 0.369141L9 0.537891V6.75V12.9621L9.10547 13.1309C9.18281 13.2574 9.26367 13.3312 9.40078 13.4016L9.58711 13.5H11.9602C13.7391 13.5 14.3719 13.4895 14.4809 13.4578C14.6672 13.4016 14.8957 13.173 14.952 12.9867C15.0047 12.8039 15.0082 0.685547 14.9555 0.499219ZM11.9883 11.9883H10.4941V6.75V1.51172L11.9883 1.51172H13.4824V6.75V11.9883H11.9883Z" fill="#666666"/>
<path d="M7.47189 6.32188C7.40157 5.76641 7.16251 5.12656 6.84962 4.65195C6.68087 4.39883 6.28712 3.97695 6.03048 3.78008C5.36251 3.27031 4.59259 3.01367 3.74532 3.01367C2.68009 3.01367 1.759 3.41094 1.02071 4.18789C0.00118371 5.26367 -0.287097 6.88789 0.303528 8.23086C0.855481 9.49648 2.00509 10.3297 3.40431 10.4809C4.20236 10.5688 5.12345 10.3332 5.84415 9.85508C6.11837 9.67578 6.55431 9.25391 6.76876 8.96563C6.95861 8.70898 7.21876 8.21328 7.31017 7.92852C7.45782 7.45742 7.52814 6.77539 7.47189 6.32188ZM5.25001 7.49609L4.50118 7.50664L4.49064 8.25547L4.48361 9.00078H3.74532H3.00704L3.00001 8.25547L2.98946 7.50664L2.24064 7.49609L1.49532 7.48906V6.75078V6.0125L2.24415 6.00547L2.98946 5.99492L3.00001 5.24961L3.00704 4.50078H3.74532H4.48361L4.49064 5.24961L4.50118 5.99492L5.25001 6.00547L5.99532 6.0125V6.75078V7.48906L5.25001 7.49609Z" fill="#666666"/>
</svg>
