<svg width="14" height="15" viewBox="0 0 14 15" fill="none" xmlns="http://www.w3.org/2000/svg">
<path d="M0.499219 0.0367188C0.3375 0.0859375 0.084375 0.346094 0.0386719 0.511328C0.0140625 0.602735 0 1.44648 0 3.025V5.40508L0.0984375 5.59141C0.16875 5.72852 0.242578 5.80938 0.369141 5.88672L0.537891 5.99219H6.75H12.9621L13.1309 5.88672C13.2574 5.80938 13.3312 5.72852 13.4016 5.59141L13.5 5.40508V3.03203C13.5 1.25313 13.4895 0.620313 13.4578 0.511328C13.4016 0.325 13.173 0.0964847 12.9867 0.0402346C12.8039 -0.0124998 0.685547 -0.0160155 0.499219 0.0367188ZM11.9883 3.00391V4.49805H6.75H1.51172V3.00391V1.50977H6.75H11.9883V3.00391Z" fill="#666666"/>
<path d="M6.31992 7.52225C5.76445 7.59257 5.12461 7.83163 4.65 8.14452C4.39688 8.31327 3.975 8.70702 3.77813 8.96366C3.26836 9.63163 3.01172 10.4016 3.01172 11.2488C3.01172 12.3141 3.40898 13.2351 4.18594 13.9734C5.26172 14.993 6.88594 15.2812 8.22891 14.6906C9.49453 14.1387 10.3277 12.9891 10.4789 11.5898C10.5668 10.7918 10.3313 9.87069 9.85313 9.14999C9.67383 8.87577 9.25195 8.43983 8.96367 8.22538C8.70703 8.03554 8.21133 7.77538 7.92656 7.68397C7.45547 7.53632 6.77344 7.466 6.31992 7.52225ZM7.49414 9.74413L7.50469 10.493L8.25352 10.5035L8.99883 10.5105V11.2488V11.9871L8.25352 11.9941L7.50469 12.0047L7.49414 12.7535L7.48711 13.4988H6.74883H6.01055L6.00352 12.75L5.99297 12.0047L5.24766 11.9941L4.49883 11.9871V11.2488V10.5105L5.24766 10.5035L5.99297 10.493L6.00352 9.74413L6.01055 8.99882H6.74883H7.48711L7.49414 9.74413Z" fill="#666666"/>
</svg>
