<svg width="15" height="14" viewBox="0 0 15 14" fill="none" xmlns="http://www.w3.org/2000/svg">
<path d="M0.0406251 13.0008C0.0898438 13.1625 0.35 13.4156 0.515234 13.4613C0.606641 13.4859 1.45039 13.5 3.02891 13.5H5.40898L5.59531 13.4016C5.73242 13.3313 5.81328 13.2574 5.89062 13.1309L5.99609 12.9621V6.75L5.99609 0.537891L5.89063 0.369141C5.81328 0.242579 5.73242 0.168751 5.59531 0.0984383L5.40898 0H3.03594C1.25703 0 0.624219 0.0105476 0.515234 0.0421877C0.328907 0.0984383 0.100391 0.326954 0.0441408 0.513282C-0.00859356 0.696095 -0.0121093 12.8145 0.0406251 13.0008ZM3.00781 1.51172H4.50195L4.50195 6.75V11.9883H3.00781H1.51367V6.75L1.51367 1.51172H3.00781Z" fill="#666666"/>
<path d="M7.52421 7.17812C7.59452 7.73359 7.83358 8.37344 8.14647 8.84805C8.31522 9.10117 8.70897 9.52305 8.96561 9.71992C9.63358 10.2297 10.4035 10.4863 11.2508 10.4863C12.316 10.4863 13.2371 10.0891 13.9754 9.31211C14.9949 8.23633 15.2832 6.61211 14.6926 5.26914C14.1406 4.00352 12.991 3.17031 11.5918 3.01914C10.7937 2.93125 9.87264 3.1668 9.15194 3.64492C8.87772 3.82422 8.44179 4.24609 8.22733 4.53437C8.03749 4.79102 7.77733 5.28672 7.68593 5.57148C7.53827 6.04258 7.46796 6.72461 7.52421 7.17812ZM9.74608 6.00391L10.4949 5.99336L10.5055 5.24453L10.5125 4.49922H11.2508H11.9891L11.9961 5.24453L12.0066 5.99336L12.7555 6.00391L13.5008 6.01094V6.74922V7.4875L12.7519 7.49453L12.0066 7.50508L11.9961 8.25039L11.9891 8.99922H11.2508H10.5125L10.5055 8.25039L10.4949 7.50508L9.74608 7.49453L9.00077 7.4875V6.74922V6.01094L9.74608 6.00391Z" fill="#666666"/>
</svg>
