<svg width="14" height="14" viewBox="0 0 14 14" fill="none" xmlns="http://www.w3.org/2000/svg">
<path d="M7.53727 0.0384645C8.78415 0.213465 9.81852 0.650964 10.7404 1.38846C10.8748 1.49784 11.2091 1.80409 11.4841 2.06971C11.7591 2.33534 11.9873 2.55409 11.9904 2.55409C11.9966 2.55409 11.9998 2.30721 11.9998 2.00721C11.9998 1.41346 12.0123 1.35096 12.1841 1.16971C12.2966 1.04471 12.4435 0.99159 12.6623 0.99159C12.9341 0.99159 13.1341 1.11034 13.2498 1.33534C13.2998 1.43534 13.306 1.57596 13.3154 2.99159L13.3279 4.53846V4.7128C13.3293 4.81836 13.3293 4.96289 13.2017 4.99471L12.906 5.00096L11.4435 4.99471C10.6404 4.99159 9.93415 4.98221 9.87477 4.96971C9.65602 4.93221 9.49352 4.82284 9.40602 4.64784C9.23415 4.30409 9.34977 3.89159 9.66852 3.71659C9.74977 3.67284 9.88727 3.66034 10.4748 3.64784L11.1841 3.63221L10.8341 3.25096C10.4029 2.77909 10.1435 2.55409 9.7029 2.25721C7.52477 0.794714 4.70602 1.06346 2.8779 2.90096C0.806025 4.98534 0.812274 8.32909 2.89352 10.4103C4.1779 11.6916 5.98102 12.2322 7.76227 11.8635C8.67165 11.676 9.57477 11.2166 10.3341 10.5572C10.6873 10.251 10.831 10.1978 11.1029 10.276C11.2373 10.3135 11.4498 10.4885 11.5154 10.6197C11.5841 10.751 11.6029 10.9353 11.5623 11.0822C11.5185 11.2447 11.3279 11.4603 10.9216 11.7978C10.0466 12.5322 9.0154 13.0041 7.8279 13.2135C7.28727 13.3103 6.39977 13.3291 5.84352 13.2572C2.49977 12.8353 -0.000226021 10.0072 -0.000226021 6.64784C-0.000226021 3.41034 2.31852 0.657214 5.53102 0.0790892C5.99665 -0.00528622 7.08415 -0.0271606 7.53727 0.0384645Z" fill="white"/>
</svg>
