<svg width="14" height="14" viewBox="0 0 14 14" fill="none" xmlns="http://www.w3.org/2000/svg">
<path d="M5.79085 0.0384645C4.54398 0.213465 3.5096 0.650964 2.58773 1.38846C2.45335 1.49784 2.11898 1.80409 1.84398 2.06971C1.56898 2.33534 1.34085 2.55409 1.33773 2.55409C1.33148 2.55409 1.32835 2.30721 1.32835 2.00721C1.32835 1.41346 1.31585 1.35096 1.14398 1.16971C1.03148 1.04471 0.884602 0.99159 0.665852 0.99159C0.393977 0.99159 0.193977 1.11034 0.0783515 1.33534C0.0283515 1.43534 0.0221015 1.57596 0.0127265 2.99159L0.000226513 4.53846V4.7128C-0.00121232 4.81836 -0.00119957 4.96289 0.126426 4.99471L0.422102 5.00096L1.8846 4.99471C2.68773 4.99159 3.39398 4.98221 3.45335 4.96971C3.6721 4.93221 3.8346 4.82284 3.9221 4.64784C4.09398 4.30409 3.97835 3.89159 3.6596 3.71659C3.57835 3.67284 3.44085 3.66034 2.85335 3.64784L2.14398 3.63221L2.49398 3.25096C2.92523 2.77909 3.1846 2.55409 3.62523 2.25721C5.80335 0.794714 8.6221 1.06346 10.4502 2.90096C12.5221 4.98534 12.5159 8.32909 10.4346 10.4103C9.15023 11.6916 7.3471 12.2322 5.56585 11.8635C4.65648 11.676 3.75335 11.2166 2.99398 10.5572C2.64085 10.251 2.4971 10.1978 2.22523 10.276C2.09085 10.3135 1.87835 10.4885 1.81273 10.6197C1.74398 10.751 1.72523 10.9353 1.76585 11.0822C1.8096 11.2447 2.00023 11.4603 2.40648 11.7978C3.28148 12.5322 4.31273 13.0041 5.50023 13.2135C6.04085 13.3103 6.92835 13.3291 7.4846 13.2572C10.8284 12.8353 13.3284 10.0072 13.3284 6.64784C13.3284 3.41034 11.0096 0.657214 7.7971 0.0790892C7.33148 -0.00528622 6.24398 -0.0271606 5.79085 0.0384645Z" fill="white"/>
</svg>
